<svg xmlns="http://www.w3.org/2000/svg" xmlns:xlink="http://www.w3.org/1999/xlink" enable-background="new 0 0 32 32" version="1.1" viewBox="0 0 32 32" xml:space="preserve" width="128" height="128"><g id="Desktop25"></g><g id="Desktop24"></g><g id="Desktop23"></g><g id="Desktop22"></g><g id="Desktop21"></g><g id="Desktop20"></g><g id="Desktop19"></g><g id="Desktop18"></g><g id="Desktop17"></g><g id="Desktop16"></g><g id="Desktop15"></g><g id="Desktop14"></g><g id="Desktop13"></g><g id="Desktop12"></g><g id="Desktop11"><g><path d="M31,10.01v12c0,1.66-1.35,3-3,3H4c-1.65,0-3-1.34-3-3v-12c0-1.65,1.35-3,3-3h24    C29.65,7.01,31,8.36,31,10.01z" fill="#3F51B5"></path></g><g><g><path d="M13,14h1c0.5523,0,1-0.4477,1-1v-1c0-0.5523-0.4477-1-1-1h-1c-0.5523,0-1,0.4477-1,1v1     C12,13.5523,12.4477,14,13,14z" fill="#2197F3"></path></g><g><path d="M18,14h1c0.5523,0,1-0.4477,1-1v-1c0-0.5523-0.4477-1-1-1h-1c-0.5523,0-1,0.4477-1,1v1     C17,13.5523,17.4477,14,18,14z" fill="#2197F3"></path></g><g><path d="M23,14h1c0.5523,0,1-0.4477,1-1v-1c0-0.5523-0.4477-1-1-1h-1c-0.5523,0-1,0.4477-1,1v1     C22,13.5523,22.4477,14,23,14z" fill="#2197F3"></path></g><g><path d="M8,14h1c0.5523,0,1-0.4477,1-1v-1c0-0.5523-0.4477-1-1-1H8c-0.5523,0-1,0.4477-1,1v1     C7,13.5523,7.4477,14,8,14z" fill="#2197F3"></path></g></g><g><g><path d="M13,18h1c0.5523,0,1-0.4477,1-1v-1c0-0.5523-0.4477-1-1-1h-1c-0.5523,0-1,0.4477-1,1v1     C12,17.5523,12.4477,18,13,18z" fill="#2197F3"></path></g><g><path d="M18,18h1c0.5523,0,1-0.4477,1-1v-1c0-0.5523-0.4477-1-1-1h-1c-0.5523,0-1,0.4477-1,1v1     C17,17.5523,17.4477,18,18,18z" fill="#2197F3"></path></g><g><path d="M19,19h-4.9063c-0.0166,0-0.0305,0.0087-0.0469,0.0095C14.0305,19.0087,14.0166,19,14,19h-1     c-0.5523,0-1,0.4477-1,1v1c0,0.5522,0.4477,1,1,1h1c0.0166,0,0.0305-0.0087,0.0469-0.0095C14.0633,21.9913,14.0771,22,14.0938,22     H19c0.5523,0,1-0.4478,1-1v-1C20,19.4477,19.5523,19,19,19z" fill="#3F51B5"></path></g><g><path d="M23,18h1c0.5523,0,1-0.4477,1-1v-1c0-0.5523-0.4477-1-1-1h-1c-0.5523,0-1,0.4477-1,1v1     C22,17.5523,22.4477,18,23,18z" fill="#2197F3"></path></g><g><path d="M8,18h1c0.5523,0,1-0.4477,1-1v-1c0-0.5523-0.4477-1-1-1H8c-0.5523,0-1,0.4477-1,1v1     C7,17.5523,7.4477,18,8,18z" fill="#2197F3"></path></g></g></g><g id="Desktop10"></g><g id="Desktop09"></g><g id="Desktop08"></g><g id="Desktop07"></g><g id="Desktop06"></g><g id="Desktop05"></g><g id="Desktop04"></g><g id="Desktop03"></g><g id="Desktop02"></g><g id="Desktop01"></g></svg>